<svg data-v-423bf9ae="" xmlns="http://www.w3.org/2000/svg" viewBox="0 0 268.92365262355634 60" class="font"><!----><!----><defs data-v-423bf9ae=""><linearGradient data-v-423bf9ae="" gradientTransform="rotate(25)" id="7aaf0b82-3ea6-4276-8e43-ca331726c298" x1="0%" y1="0%" x2="100%" y2="0%"><stop data-v-423bf9ae="" offset="0%" style="stop-color: rgb(150, 138, 191); stop-opacity: 1;"></stop><stop data-v-423bf9ae="" offset="100%" style="stop-color: rgb(228, 168, 170); stop-opacity: 1;"></stop></linearGradient></defs><g data-v-423bf9ae="" id="63a076d4-0746-4648-8214-38190ff4ce9e" fill="url(#7aaf0b82-3ea6-4276-8e43-ca331726c298)" transform="matrix(5.519779266944674,0,0,5.519779266944674,-5.2989911551679825,-15.676173483537191)"><path d="M1.03 13.71L0.96 13.71L1.89 9.68Q2.22 8.25 2.92 7.36L2.92 7.36Q4.16 5.78 5.67 5.78L5.67 5.78L6.60 5.78L6.58 5.85L5.80 6.95L5.40 6.95Q4.63 6.95 3.96 7.85L3.96 7.85Q3.55 8.41 3.26 9.68L3.26 9.68L2.47 13.10L1.03 13.71ZM13.59 2.84L13.66 2.84L12.08 9.68Q11.75 11.11 11.05 12.00L11.05 12.00Q9.82 13.58 8.29 13.58L8.29 13.58Q6.79 13.58 6.28 12.00L6.28 12.00Q6.14 11.58 6.14 11.04L6.14 11.04Q6.14 10.44 6.31 9.68L6.31 9.68Q6.69 8.03 8.26 7.08L8.26 7.08L6.57 7.08L6.58 7.01L7.35 5.92L10.55 5.92L10.53 5.99L9.77 7.08Q8.81 7.66 8.38 8.20L8.38 8.20Q7.87 8.86 7.68 9.68L7.68 9.68Q7.49 10.51 7.49 11.03L7.49 11.03Q7.49 11.31 7.54 11.51L7.54 11.51Q7.79 12.41 8.57 12.41Q9.34 12.41 10.01 11.50L10.01 11.50Q10.41 10.95 10.71 9.68L10.71 9.68L12.15 3.46L13.59 2.84ZM17.08 12.48L16.32 13.58Q14.80 13.58 14.30 12.00L14.30 12.00Q14.16 11.57 14.16 11.03L14.16 11.03Q14.16 10.42 14.33 9.68L14.33 9.68Q14.68 8.24 15.36 7.36L15.36 7.36Q16.59 5.78 18.12 5.78L18.12 5.78Q19.67 5.78 20.14 7.36L20.14 7.36Q20.27 7.80 20.27 8.33L20.27 8.33Q20.27 8.94 20.10 9.68L20.10 9.68L19.50 12.25Q19.43 12.55 19.76 12.55L19.76 12.55L20.29 12.55L20.28 12.62L19.51 13.71Q18.08 13.71 18.08 12.69L18.08 12.69Q18.08 12.49 18.14 12.25L18.14 12.25L18.73 9.68Q18.92 8.83 18.92 8.31L18.92 8.31Q18.92 8.05 18.87 7.85L18.87 7.85Q18.62 6.95 17.85 6.95Q17.08 6.95 16.41 7.85L16.41 7.85Q16.00 8.42 15.70 9.68L15.70 9.68Q15.51 10.51 15.51 11.03L15.51 11.03Q15.51 11.31 15.57 11.51L15.57 11.51Q15.81 12.41 16.58 12.41L16.58 12.41L17.10 12.41L17.08 12.48ZM35.10 2.84L35.17 2.84L33.59 9.68Q33.26 11.11 32.57 12.00L32.57 12.00Q31.33 13.58 29.80 13.58L29.80 13.58Q28.31 13.58 27.79 12.00L27.79 12.00Q27.65 11.58 27.65 11.04L27.65 11.04Q27.65 10.44 27.82 9.68L27.82 9.68Q28.21 8.03 29.77 7.08L29.77 7.08L28.08 7.08L28.10 7.01L28.86 5.92L32.06 5.92L32.05 5.99L31.28 7.08Q30.32 7.66 29.89 8.20L29.89 8.20Q29.38 8.86 29.19 9.68L29.19 9.68Q29.00 10.51 29.00 11.03L29.00 11.03Q29.00 11.31 29.05 11.51L29.05 11.51Q29.30 12.41 30.08 12.41Q30.86 12.41 31.52 11.50L31.52 11.50Q31.92 10.95 32.22 9.68L32.22 9.68L33.66 3.46L35.10 2.84ZM41.17 10.86L41.23 10.86Q40.96 11.52 40.58 12.00L40.58 12.00Q39.35 13.58 37.82 13.58L37.82 13.58Q36.33 13.58 35.81 12.00L35.81 12.00Q35.67 11.59 35.67 11.05L35.67 11.05Q35.67 10.42 35.85 9.68L35.85 9.68Q36.16 8.29 36.87 7.36L36.87 7.36Q38.09 5.78 39.63 5.78L39.63 5.78Q40.80 5.78 41.35 6.51L41.35 6.51Q41.78 7.08 41.78 7.73L41.78 7.73Q41.78 7.98 41.72 8.23L41.72 8.23Q41.47 9.28 40.58 10.06L40.58 10.06Q39.71 10.83 38.42 10.83L38.42 10.83L37.90 10.83L37.92 10.76L38.68 9.67Q39.42 9.67 39.83 9.27L39.83 9.27Q40.23 8.88 40.39 8.22L40.39 8.22Q40.43 8.05 40.43 7.90L40.43 7.90Q40.43 7.57 40.25 7.33L40.25 7.33Q39.98 6.95 39.35 6.95L39.35 6.95Q38.52 6.95 37.92 7.85L37.92 7.85Q37.48 8.50 37.21 9.68L37.21 9.68Q37.02 10.53 37.02 11.05L37.02 11.05Q37.02 11.32 37.07 11.51L37.07 11.51Q37.33 12.41 38.10 12.41L38.10 12.41Q38.88 12.41 39.53 11.51L39.53 11.51L41.17 10.86ZM43.76 9.68L44.55 6.26L45.99 5.65L46.06 5.65L45.13 9.68Q44.94 10.53 44.94 11.05L44.94 11.05Q44.94 11.32 44.99 11.51L44.99 11.51Q45.25 12.41 46.01 12.41L46.01 12.41Q46.79 12.41 47.45 11.51L47.45 11.51Q47.87 10.95 48.16 9.68L48.16 9.68Q48.34 8.92 48.34 8.35L48.34 8.35Q48.34 8.07 48.30 7.85L48.30 7.85Q48.13 6.96 47.38 6.67L47.38 6.67L48.13 5.65L48.19 5.65Q49.27 6.11 49.57 7.36L49.57 7.36Q49.68 7.84 49.68 8.37L49.68 8.37Q49.68 8.98 49.53 9.68L49.53 9.68Q49.21 11.08 48.49 12.00L48.49 12.00Q47.26 13.58 45.74 13.58L45.74 13.58Q44.21 13.58 43.72 12.00L43.72 12.00Q43.59 11.57 43.59 11.04L43.59 11.04Q43.59 10.44 43.76 9.68L43.76 9.68Z"></path></g><!----><!----></svg>